<?xml version="1.0" encoding="UTF-8"?>
<svg id="uuid-11d26392-1644-47c6-adb5-0b523cdde924" data-name="uuid-cb7406a2-1980-48cf-8d88-6e4c16418409" xmlns="http://www.w3.org/2000/svg" viewBox="0 0 354.6 302.1">
  <defs>
    <style>
      .uuid-ff4308c6-ed1c-450e-97ee-9c1350e1fd48 {
        fill: #f8f8f8;
        stroke-width: 0px;
      }
    </style>
  </defs>
  <g>
    <path class="uuid-ff4308c6-ed1c-450e-97ee-9c1350e1fd48" d="m58.2,240h-24.5c-18.6,0-33.7,15.1-33.7,33.7v24h52.7v-35.1c0-8,2-15.8,5.5-22.6Z"/>
    <path class="uuid-ff4308c6-ed1c-450e-97ee-9c1350e1fd48" d="m111.4,213.3c5.5-6.7,8.8-15.2,8.8-24.5,0-11.1-4.7-21.1-12.1-28.1v-14.8c2.8-.2,5.4-.9,7.8-2-.2-1.9-.3-3.8-.3-5.8,0-10.6,2.9-20.5,8-29-4.1-4.9-10.2-8-17.1-8-.7,0-1.4,0-2.2.1-5.7-5.8-13.7-9.4-22.5-9.4s-16.8,3.6-22.6,9.5c-.8-.1-1.7-.1-2.6-.1-12.4,0-22.4,10.6-22.4,22.4s9.1,21.5,20.7,22.3v14.8c-7.5,7-12.1,17-12.1,28.1,0,17.2,11.2,31.8,26.7,36.8,8.7-7.6,20.1-12.3,32.6-12.3h9.3Z"/>
  </g>
  <g>
    <path class="uuid-ff4308c6-ed1c-450e-97ee-9c1350e1fd48" d="m296.4,240h24.5c18.6,0,33.7,15.1,33.7,33.7v24h-52.7v-35.1c0-8-2-15.8-5.5-22.6Z"/>
    <path class="uuid-ff4308c6-ed1c-450e-97ee-9c1350e1fd48" d="m243.2,213.3c-5.5-6.7-8.8-15.2-8.8-24.5,0-11.1,4.7-21.1,12.1-28.1v-14.8c-2.8-.2-5.4-.9-7.8-2,.2-1.9.3-3.8.3-5.8,0-10.6-2.9-20.5-8-29,4.1-4.9,10.2-8,17.1-8,.7,0,1.4,0,2.2.1,5.7-5.8,13.7-9.4,22.5-9.4s16.8,3.6,22.6,9.5c.8-.1,1.7-.1,2.6-.1,12.4,0,22.4,10.6,22.4,22.4s-9.1,21.5-20.7,22.3v14.8c7.5,7,12.1,17,12.1,28.1,0,17.2-11.2,31.8-26.7,36.8-8.7-7.6-20.1-12.3-32.6-12.3h-9.3Z"/>
  </g>
  <path class="uuid-ff4308c6-ed1c-450e-97ee-9c1350e1fd48" d="m248.4,217.3H108.2c-12.5,0-23.9,4.6-32.6,12.3-4.6,4.1-8.5,9-11.3,14.5-3.5,6.8-5.5,14.5-5.5,22.7v35.3h239.1v-35.3c-.1-27.4-22.2-49.5-49.5-49.5Z"/>
  <path class="uuid-ff4308c6-ed1c-450e-97ee-9c1350e1fd48" d="m247.6,46.5c0-18.1-14.7-32.8-32.8-32.8-1.1,0-2.1,0-3.2.1-8.4-8.5-20.1-13.8-33.1-13.8s-24.7,5.3-33.1,13.9c-1.2-.2-2.5-.2-3.8-.2-18.1,0-32.8,15.5-32.8,32.8s13.4,31.5,30.4,32.7v21.7c-3.8,3.6-7.1,7.7-9.8,12.2h0c-5.1,8.5-8,18.4-8,29,0,1.9.1,3.9.3,5.8h0c2.9,28.6,27.1,50.9,56.4,50.9,31.3,0,56.7-25.4,56.7-56.7,0-16.2-6.8-30.9-17.8-41.2v-21.7c17.2-1.2,30.6-14.6,30.6-32.7Zm-117.4,94.8c2.9-3.7,4.6-8.4,4.6-13.8,0-2.9-.6-5.7-1.6-8.3,1,2.6,1.6,5.3,1.6,8.3,0,5.4-1.7,10.1-4.6,13.8Z"/>
</svg>