<?xml version="1.0" encoding="UTF-8"?>
<svg id="uuid-bd21864e-6f69-43bc-87c3-5e8925554afe" data-name="Capa 1" xmlns="http://www.w3.org/2000/svg" viewBox="0 0 354.6 302.1">
  <defs>
    <style>
      .uuid-4d6818a2-1b34-4851-b555-0c25d30be3c9 {
        fill: #fff;
        stroke-width: 0px;
      }
    </style>
  </defs>
  <g>
    <rect class="uuid-4d6818a2-1b34-4851-b555-0c25d30be3c9" x="88.65" y="181.26" width="70.92" height="60.42"/>
    <path class="uuid-4d6818a2-1b34-4851-b555-0c25d30be3c9" d="m301.41,181.26v73.64c0,8.76-7.76,15.86-17.73,16.8v.19h-17.73v-90.63h-70.92v90.63h-121.89c-.75,0-1.46-.11-2.22-.19-9.97-.94-17.73-8.04-17.73-16.8v-73.64H17.73v73.64c0,26.06,20.83,47.2,46.54,47.2.4,0,.8,0,1.2-.04.35.04.66.04,1.02.04h221.62c.35,0,.66,0,1.02-.04.4.04.8.04,1.2.04,25.71,0,46.54-21.15,46.54-47.2v-73.64h-35.46Z"/>
  </g>
  <path class="uuid-4d6818a2-1b34-4851-b555-0c25d30be3c9" d="m354.47,135.95c.04-.11.04-.23.04-.3l-.04-.34-1.55-6.34-24.91-102.53h-.09c-.89-14.77-12.41-26.43-26.51-26.43H53.19c-14.1,0-25.62,11.67-26.51,26.43h-.09L1.68,128.96c-.8,2.04-1.33,4.15-1.55,6.34-.04.11-.04.23-.04.34l-.09.3h.13c-.09.64-.13,1.25-.13,1.89,0,15.63,14.89,28.32,33.24,28.32,12.06,0,22.65-5.48,28.41-13.71,8.38,8.31,22.3,13.71,38.08,13.71,16.93,0,31.78-6.23,39.89-15.6,8.11,9.37,22.96,15.6,39.89,15.6,15.51,0,29.25-5.25,37.68-13.29,8.42,8.04,22.16,13.29,37.68,13.29s29.7-5.4,38.08-13.71c5.76,8.23,16.36,13.71,28.41,13.71,18.35,0,33.24-12.69,33.24-28.32,0-.64-.04-1.25-.13-1.89Zm-232.35-1.21c-6.6,2.64-14.27,4.98-22.38,4.98-11.97,0-22.87-5.06-31.07-8.69l21.59-85.72h49.38l-17.51,89.42Zm132.75,4.98c-8.11,0-15.78-2.34-22.38-4.98l-17.51-89.42h49.38l21.59,85.72c-8.2,3.63-19.1,8.69-31.07,8.69Z"/>
</svg>