<?xml version="1.0" encoding="UTF-8"?>
<svg id="uuid-4f79d354-f123-42cc-9764-96714a150927" data-name="Capa 1" xmlns="http://www.w3.org/2000/svg" viewBox="0 0 56 56">
  <defs>
    <style>
      .uuid-57ffdd14-0500-4674-b0fb-418873f48f97 {
        fill: none;
      }

      .uuid-57ffdd14-0500-4674-b0fb-418873f48f97, .uuid-72d32005-33b3-4466-bb82-dd6a2de010a6 {
        stroke-width: 0px;
      }

      .uuid-72d32005-33b3-4466-bb82-dd6a2de010a6 {
        fill: #1877f2;
      }
    </style>
  </defs>
  <path class="uuid-72d32005-33b3-4466-bb82-dd6a2de010a6" d="m56,28C56,12.53,43.47,0,28,0S0,12.53,0,28c0,13.98,10.24,25.56,23.62,27.66v-19.57h-7.11v-8.09h7.11v-6.17c0-7.02,4.18-10.89,10.58-10.89,3.06,0,6.27.55,6.27.55v6.89h-3.53c-3.48,0-4.56,2.16-4.56,4.38v5.25h7.77l-1.24,8.09h-6.52v19.57c13.39-2.1,23.62-13.68,23.62-27.66Z"/>
  <path class="uuid-57ffdd14-0500-4674-b0fb-418873f48f97" d="m38.9,36.09l1.24-8.09h-7.77v-5.25c0-2.21,1.08-4.38,4.56-4.38h3.53v-6.89s-3.2-.55-6.27-.55c-6.4,0-10.58,3.88-10.58,10.89v6.17h-7.11v8.09h7.11v19.57c1.43.22,2.89.34,4.38.34s2.95-.11,4.38-.34v-19.57h6.52Z"/>
</svg>