<?xml version="1.0" encoding="UTF-8"?>
<svg id="uuid-f66339aa-6574-48cf-b1b9-924ac4981987" data-name="Capa 1" xmlns="http://www.w3.org/2000/svg" viewBox="0 0 56 56">
  <defs>
    <style>
      .uuid-b5accfa4-1499-4aca-b8fa-8fe8c68aa2be {
        fill: #007ab9;
        stroke-width: 0px;
      }
    </style>
  </defs>
  <path class="uuid-b5accfa4-1499-4aca-b8fa-8fe8c68aa2be" d="m30.99,24.59v-.07s-.03.04-.04.07h.04Z"/>
  <path class="uuid-b5accfa4-1499-4aca-b8fa-8fe8c68aa2be" d="m28,0C12.54,0,0,12.54,0,28s12.54,28,28,28,28-12.54,28-28S43.46,0,28,0Zm-7.4,41.8h-6.69v-20.13h6.69v20.13Zm-3.35-22.88h-.04c-2.25,0-3.7-1.55-3.7-3.48s1.5-3.48,3.79-3.48,3.7,1.5,3.74,3.48c0,1.93-1.45,3.48-3.79,3.48Zm27.48,22.88h-6.69v-10.77c0-2.7-.97-4.55-3.39-4.55-1.85,0-2.95,1.24-3.43,2.45-.18.43-.22,1.03-.22,1.63v11.24h-6.69s.09-18.24,0-20.13h6.69v2.85c.89-1.37,2.48-3.33,6.03-3.33,4.4,0,7.7,2.88,7.7,9.06v11.54Z"/>
</svg>