<?xml version="1.0" encoding="UTF-8"?>
<svg id="uuid-9a86f72b-8cf8-4694-8817-1dbcb4daead3" data-name="Capa 2" xmlns="http://www.w3.org/2000/svg" viewBox="0 0 354.6 302.1">
  <defs>
    <style>
      .uuid-627d2c21-5689-4492-920e-a6dd2a1b60b7 {
        fill: #f8f8f8;
        stroke-width: 0px;
      }
    </style>
  </defs>
  <g id="uuid-04705275-90d9-4342-b83e-e920fadac54d" data-name="Capa 1">
    <path class="uuid-627d2c21-5689-4492-920e-a6dd2a1b60b7" d="m336.06,172.23c-12.36-9.26-31.5-16.9-57.43-22.94-9.38-2.15-22.94-4.5-40.67-7.04v-71.19c5.89,1.42,11.21,3.1,15.9,5.05,17.52,7.26,27.8,18,30.84,32.22l56.52-2.15c-1.02-13.19-8.31-25.01-21.88-35.44-13.57-10.43-32.97-18.33-58.19-23.7-7.39-1.57-15.13-2.91-23.2-4.02V0h-44.45v39.33c-6.41-.22-12.98-.34-19.71-.34-4.35,0-8.64.06-12.88.17V0h-44.45v42.53c-8.41,1.11-16.55,2.49-24.4,4.12-24.51,5.12-43.15,12.61-55.91,22.48-12.76,9.87-19.14,20.48-19.14,31.84,0,10.33,5.21,19.66,15.65,28,10.43,8.34,26.28,15.32,47.55,20.94,8.66,2.32,20.77,4.72,36.25,7.2v80.56c-19.07-4.38-33.24-10.03-42.48-16.96-9.62-7.21-15.75-16.44-18.38-27.69l-55.61,2.45c.81,15.04,8.96,28.51,24.46,40.43,15.5,11.92,36.87,20.84,64.11,26.77,8.64,1.88,17.94,3.46,27.9,4.75v34.68h44.45v-31.08c9.26.37,18.92.56,28.99.56,1.21,0,2.41-.01,3.61-.02v30.55h44.45v-33.03c13.29-1.46,25.89-3.56,37.78-6.31,25.42-5.88,44.92-14.11,58.49-24.7,13.57-10.59,20.36-21.86,20.36-33.83s-6.18-22.73-18.54-31.99Zm-159.83-107.01c6.02,0,11.77.12,17.28.34v70.96c-4.35-.52-8.85-1.04-13.48-1.57-6.74-.77-13.1-1.54-19.11-2.3v-67.2c4.9-.15,9.98-.23,15.32-.23Zm-85.08,53.7c-11.55-5.22-17.32-11.86-17.32-19.94,0-9.31,8.15-17.26,24.46-23.86,5.11-2.07,11.17-3.81,18.17-5.23v55.94c-11.92-2.33-20.36-4.63-25.31-6.91Zm96.02,125.96c-9.08,0-17.83-.29-26.25-.86v-80.72c1.75.22,3.49.43,5.29.65,9.96,1.21,19.06,2.34,27.31,3.39v77.48c-2.1.03-4.2.06-6.34.06Zm97.99-18.95c-8.41,5.88-21.22,10.51-38.44,13.88-2.84.56-5.78,1.05-8.76,1.52v-67.76c2.95.49,5.47.94,7.55,1.34,18.64,3.58,32.01,8,40.11,13.27,8.1,5.27,12.15,11.43,12.15,18.49s-4.2,13.37-12.61,19.25Z"/>
  </g>
</svg>