<?xml version="1.0" encoding="UTF-8"?>
<svg id="uuid-2d9749cd-b0c0-4a80-ba3d-d305dbd1df8d" data-name="Capa 1" xmlns="http://www.w3.org/2000/svg" viewBox="0 0 56 56">
  <defs>
    <style>
      .uuid-4a4fd759-2d11-40a6-b891-0a9eeced7d47 {
        fill: #25d366;
        stroke-width: 0px;
      }
    </style>
  </defs>
  <g id="uuid-cf27529a-3295-45cf-8360-2472d22149e1" data-name="WA">
    <path class="uuid-4a4fd759-2d11-40a6-b891-0a9eeced7d47" d="m28,0C12.5,0,0,12.5,0,28c0,5.5,1.6,10.7,4.3,15l-3.3,12,12-3.3c4.3,2.7,9.5,4.3,15,4.3,15.5,0,28-12.5,28-28S43.5,0,28,0Zm13.9,35.6c-1.9,4-5.4,4.5-5.4,4.5-3,.6-6.8-.7-9.8-2.1-4.3-2-8-5.2-10.5-9.3-1.1-1.9-2.1-4.1-2.2-6.2,0,0-.4-3.5,3-6.3.3-.2.6-.3,1-.3h1.5c.6,0,1.2.4,1.4,1l2.3,5.6c.2.6.1,1.2-.3,1.7l-1.5,1.6c-.5.5-.5,1.2-.2,1.8.1.2.3.5.6.8,1.8,2.4,4.2,4.2,6.9,5.4.4.2.7.3,1,.4.7.2,1.3-.1,1.7-.6l1.2-1.8c.3-.5.9-.8,1.5-.7l6,.9c.6.1,1.1.6,1.3,1.2l.4,1.5c.2.2.2.6.1.9Z"/>
  </g>
</svg>