<?xml version="1.0" encoding="UTF-8"?>
<svg id="uuid-0074d04c-0d21-41bf-b88c-8bf6dd51ee73" data-name="Capa 1" xmlns="http://www.w3.org/2000/svg" viewBox="0 0 56 56">
  <defs>
    <style>
      .uuid-7bbcdf11-638f-4211-b30c-b7aef19e2483 {
        fill: #18b0f5;
        stroke-width: 0px;
      }
    </style>
  </defs>
  <path class="uuid-7bbcdf11-638f-4211-b30c-b7aef19e2483" d="m3.99,0C1.73,0-.07,1.87,0,4.12c.26,8.26,2.7,26.53,18.28,39.73,12.47,10.55,26.56,12.1,33.72,12.15,2.21.01,3.99-1.79,3.99-4v-9.73c0-2.12-1.65-3.87-3.76-3.99-3.12-.17-5.96-.55-8.59-1.5-1.33-.48-2.82-.25-3.92.65l-3.8,3.13c-1.2.99-2.87,1.19-4.27.53-7.08-3.37-12.58-9.34-16.56-16.45-.91-1.62-.58-3.66.79-4.92l3.18-2.91c1.36-1.24,1.66-3.23.8-4.86-.41-.78-.81-1.63-1.16-2.57-.81-2.12-1.23-4.13-1.43-5.86-.23-2.01-1.93-3.52-3.96-3.52H3.99Z"/>
</svg>