<?xml version="1.0" encoding="UTF-8"?>
<svg id="uuid-a78ab33e-c260-4cf2-bc00-3b87d8b88cc5" data-name="Capa 2" xmlns="http://www.w3.org/2000/svg" xmlns:xlink="http://www.w3.org/1999/xlink" viewBox="0 0 515.37 201.4">
  <defs>
    <style>
      .uuid-72622f52-e16e-49df-8aaf-e9432474d3ab {
        fill: #77ac00;
      }

      .uuid-72622f52-e16e-49df-8aaf-e9432474d3ab, .uuid-2fcd76cd-d8e3-4082-ac46-c602d85543ea, .uuid-9a885eb5-fc51-47f3-a908-d27f20ea893c {
        stroke-width: 0px;
      }

      .uuid-2fcd76cd-d8e3-4082-ac46-c602d85543ea {
        fill: none;
      }

      .uuid-9a885eb5-fc51-47f3-a908-d27f20ea893c {
        fill: #f2ba05;
      }

      .uuid-b267c1d7-f529-448d-bd2d-48bd2447f4a9 {
        clip-path: url(#uuid-5131c655-88cd-4841-b0fa-d53a088ede11);
      }
    </style>
    <clipPath id="uuid-5131c655-88cd-4841-b0fa-d53a088ede11">
      <path class="uuid-2fcd76cd-d8e3-4082-ac46-c602d85543ea" d="m-2-2v156.39h519.37V-2H-2Zm516.94,153.75c-.39.37-.78.73-1.19,1.08l-.69-.85c-6.87-7.83-40.6-33.51-83.15-50.42l-.34-.49c44.9-17.71,78.08-43.95,84.27-51,.28-.35.54-.67.8-.99.18.2.37.39.56.59.05.05.11.09.17.14-1.32,16.18-.18,101.71-.44,101.96Z"/>
    </clipPath>
  </defs>
  <g id="uuid-508a3565-689b-4a56-8f6f-cb1a76a853a7" data-name="Capa 1">
    <g>
      <path class="uuid-72622f52-e16e-49df-8aaf-e9432474d3ab" d="m83.9,144.1c41.58,12.83,86.85,8.13,127-8.49,15.26-6.24,43.8-23.13,43.9-22.76,110.47-78.45,245.88,23.49,259.04,38.49.29.37.57.71.85,1.04.29-.26.54-.53.69-.85-.07-.83-.13-1.82-.18-2.98-.03-.17-.05-.33-.05-.48,0-.15,0-.28.01-.42-.96-22.9.03-97.77-.21-98.01-1.46-1.38-3.08-2.7-4.64-3.92-16.1-12.33-33.91-21.9-52.56-29.48-51.76-20.96-109.13-22.22-160.82-.52-17.61,7.33-34.31,17.01-49.62,28.36-18.29,12.86-32.44,29.4-49.8,42.94-3.71,2.93-7.9,5.94-11.83,8.57-3.87,2.62-8.33,5.36-12.41,7.64-34.47,20.01-77.11,25.44-115.79,14.45-20.52-5.67-40.32-14.75-57.47-27.5,22.16,25.33,51.59,43.95,83.9,53.89Z"/>
      <path class="uuid-9a885eb5-fc51-47f3-a908-d27f20ea893c" d="m57.47,83.69c38.68-10.99,81.32-5.56,115.79,14.45,4.08,2.28,8.53,5.02,12.41,7.64,3.93,2.63,8.11,5.65,11.83,8.57,17.37,13.54,31.52,30.08,49.8,42.94,15.31,11.35,32.01,21.03,49.62,28.36,51.69,21.7,109.05,20.44,160.82-.52,18.65-7.57,36.46-17.15,52.56-29.48,1.57-1.22,3.18-2.53,4.64-3.92.25-.25-.89-85.78.44-101.96-.06-.05-.12-.09-.17-.14-.19-.19-.38-.38-.56-.58-.26.32-.52.64-.8.99-13.16,15-148.56,116.95-259.04,38.49-.1.37-28.64-16.52-43.9-22.76-40.15-16.62-85.42-21.32-127-8.49C51.59,67.24,22.16,85.86,0,111.19c17.15-12.75,36.96-21.83,57.47-27.5Z"/>
      <g class="uuid-b267c1d7-f529-448d-bd2d-48bd2447f4a9">
        <path class="uuid-72622f52-e16e-49df-8aaf-e9432474d3ab" d="m83.9,144.1c41.58,12.83,86.85,8.13,127-8.49,15.26-6.24,43.8-23.13,43.9-22.76,110.47-78.45,245.88,23.49,259.04,38.49.29.37.57.71.85,1.04.29-.26.54-.53.69-.85-.07-.83-.13-1.82-.18-2.98-.03-.17-.05-.33-.05-.48,0-.15,0-.28.01-.42-.96-22.9.03-97.77-.21-98.01-1.46-1.38-3.08-2.7-4.64-3.92-16.1-12.33-33.91-21.9-52.56-29.48-51.76-20.96-109.13-22.22-160.82-.52-17.61,7.33-34.31,17.01-49.62,28.36-18.29,12.86-32.44,29.4-49.8,42.94-3.71,2.93-7.9,5.94-11.83,8.57-3.87,2.62-8.33,5.36-12.41,7.64-34.47,20.01-77.11,25.44-115.79,14.45-20.52-5.67-40.32-14.75-57.47-27.5,22.16,25.33,51.59,43.95,83.9,53.89Z"/>
      </g>
    </g>
  </g>
</svg>